# xmcd
#
# Track frame offsets:
# 150
# 17740
# 30292
# 44767
# 65358
# 86477
# 105498
# 122670
# 137732
# 156630
#
# Disc length: 2421 seconds
#
#
# Revision: 0
# Processed by: cddbd v1.5PL3 Copyright (c) Steve Scherf et al.
# Submitted via: FreeRIP 2.53 
#
DISCID=8009730a
DTITLE=Nathan Hamilton - Tuscola
DYEAR=1999
DGENRE=Country
TTITLE0=Cash and Tobacco
TTITLE1=Grainger County
TTITLE2=Outlaw's Lament
TTITLE3=One man's list
TTITLE4=Spent
TTITLE5=Two Penny Vengeance
TTITLE6=Farmer's Rest
TTITLE7=Roots
TTITLE8=Devil's Full Moon
TTITLE9=Tuscola
EXTD=
EXTT0=
EXTT1=
EXTT2=
EXTT3=
EXTT4=
EXTT5=
EXTT6=
EXTT7=
EXTT8=
EXTT9=
PLAYORDER=
